<svg width="16" height="16" xmlns="http://www.w3.org/2000/svg"><path d="M14.632 14.817a.875.875 0 1 1-1.75 0v-1.399c0-1.068-.831-1.924-1.845-1.924H5.595c-1.014 0-1.846.856-1.846 1.924v1.4a.875.875 0 1 1-1.749 0v-1.4c0-2.023 1.604-3.673 3.595-3.673h5.442c1.99 0 3.595 1.65 3.595 3.673v1.4ZM10.065 4.673c0-1.068-.832-1.924-1.846-1.924-1.014 0-1.846.856-1.846 1.924s.832 1.924 1.846 1.924c1.014 0 1.846-.856 1.846-1.924Zm1.749 0c0 2.023-1.604 3.673-3.595 3.673s-3.595-1.65-3.595-3.673S6.228 1 8.219 1c1.99 0 3.595 1.65 3.595 3.673Z" fill="#FFF"/></svg>