<svg width="16" height="18" viewBox="0 0 16 18" fill="none" xmlns="http://www.w3.org/2000/svg"><path d="M12.76 9.572c-.022-2.274 1.909-3.38 1.997-3.431-1.093-1.555-2.788-1.767-3.384-1.784-1.423-.146-2.804.83-3.529.83-.74 0-1.856-.816-3.06-.792-1.548.023-2.997.897-3.791 2.255-1.64 2.768-.417 6.835 1.154 9.073.786 1.095 1.704 2.319 2.906 2.276 1.176-.047 1.615-.731 3.034-.731 1.406 0 1.819.73 3.045.703 1.262-.02 2.056-1.1 2.815-2.206.908-1.256 1.273-2.493 1.287-2.556-.03-.01-2.45-.911-2.475-3.637zm-2.316-6.687c.632-.771 1.065-1.82.945-2.885-.916.04-2.06.617-2.72 1.372-.583.664-1.104 1.754-.97 2.778 1.029.075 2.085-.506 2.745-1.265z" fill="#fff" fill-opacity=".74"/></svg>