<svg width="17" height="18" viewBox="0 0 17 18" fill="none" xmlns="http://www.w3.org/2000/svg"><path d="M.567.278c-.211.216-.333.55-.333.984v15.476c0 .434.122.77.333.985l.051.047L9.501 9.1v-.205L.618.228l-.051.05z" fill="url(#a)"/><path d="M12.459 11.992 9.5 9.102v-.205l2.961-2.891.067.037 3.506 1.948c1.001.553 1.001 1.463 0 2.02l-3.506 1.944-.07.037z" fill="url(#b)"/><path d="M12.529 11.955 9.5 8.999.567 17.723c.333.34.875.382 1.491.04l10.47-5.808z" fill="url(#c)"/><path d="M12.529 6.043 2.058.233C1.442-.104.9-.063.568.278L9.5 8.998l3.028-2.955z" fill="url(#d)"/><defs><linearGradient id="a" x1="8.712" y1="16.9" x2="-3.029" y2="4.874" gradientUnits="userSpaceOnUse"><stop stop-color="#00A0FF"/><stop offset=".007" stop-color="#00A1FF"/><stop offset=".26" stop-color="#00BEFF"/><stop offset=".512" stop-color="#00D2FF"/><stop offset=".76" stop-color="#00DFFF"/><stop offset="1" stop-color="#00E3FF"/></linearGradient><linearGradient id="b" x1="17.338" y1="8.998" x2="-.005" y2="8.998" gradientUnits="userSpaceOnUse"><stop stop-color="#FFE000"/><stop offset=".409" stop-color="#FFBD00"/><stop offset=".775" stop-color="orange"/><stop offset="1" stop-color="#FF9C00"/></linearGradient><linearGradient id="c" x1="10.883" y1="7.392" x2="-5.039" y2="-8.915" gradientUnits="userSpaceOnUse"><stop stop-color="#FF3A44"/><stop offset="1" stop-color="#C31162"/></linearGradient><linearGradient id="d" x1="-1.682" y1="22.871" x2="5.428" y2="15.589" gradientUnits="userSpaceOnUse"><stop stop-color="#32A071"/><stop offset=".069" stop-color="#2DA771"/><stop offset=".476" stop-color="#15CF74"/><stop offset=".801" stop-color="#06E775"/><stop offset="1" stop-color="#00F076"/></linearGradient></defs></svg>