<svg width="11" height="14" fill="none" xmlns="http://www.w3.org/2000/svg"><mask id="a" maskUnits="userSpaceOnUse" x="0" y="0" width="11" height="14" fill="#000"><path fill="#fff" d="M0 0h11v14H0z"/><path d="M2.408 13c-.118-.03-.238-.054-.353-.093-.3-.1-.562-.284-.75-.528A1.454 1.454 0 0 1 1 11.541V2.578c0-.6.26-1.061.8-1.373.249-.14.534-.21.823-.205h7.011c.399 0 .679.192.77.532.019.08.027.162.024.243v10.462c0 .415-.136.586-.598.763H2.408Zm7.42-3.025V1.797c0-.035.012-.079-.005-.103-.03-.045-.078-.106-.121-.107-.257-.01-.515-.005-.784-.005v2.915a.49.49 0 0 1-.094.304.532.532 0 0 1-.266.191.538.538 0 0 1-.569-.184 2.876 2.876 0 0 1-.188-.259c-.123-.183-.243-.368-.371-.564-.148.226-.282.44-.428.648a1.239 1.239 0 0 1-.225.262.504.504 0 0 1-.49.092.496.496 0 0 1-.214-.138.46.46 0 0 1-.11-.223 1.022 1.022 0 0 1-.02-.22V1.577c-.044-.003-.076-.008-.108-.008h-3.18a1.21 1.21 0 0 0-.293.033c-.482.123-.757.481-.758.984v7.581c0 .036.004.073.007.119a.456.456 0 0 0 .058-.027c.32-.219.683-.287 1.07-.287 2.282.004 4.562.004 6.843 0l.246.002Zm0 1.232v-.41c0-.232-.013-.245-.258-.245H2.741c-.082 0-.164.004-.246.01-.677.044-1.102.773-.787 1.344.2.363.525.525.945.525h6.965c.028 0 .066.009.084-.005.047-.035.116-.079.12-.122.014-.17.005-.342.005-.526H9.66l-6.644.004a.963.963 0 0 1-.184-.01.296.296 0 0 1-.167-.1.27.27 0 0 1 .007-.355.299.299 0 0 1 .172-.094c.057-.007.114-.01.172-.008l6.63-.009.183.001Zm-3.27-9.63v2.64c.025-.035.038-.051.047-.068.179-.27.355-.543.537-.812.158-.232.406-.23.565 0 .086.128.17.258.254.387l.337.509V1.578h-1.74Z"/></mask><path d="M2.408 13c-.118-.03-.238-.054-.353-.093-.3-.1-.562-.284-.75-.528A1.454 1.454 0 0 1 1 11.541V2.578c0-.6.26-1.061.8-1.373.249-.14.534-.21.823-.205h7.011c.399 0 .679.192.77.532.019.08.027.162.024.243v10.462c0 .415-.136.586-.598.763H2.408Zm7.42-3.025V1.797c0-.035.012-.079-.005-.103-.03-.045-.078-.106-.121-.107-.257-.01-.515-.005-.784-.005v2.915a.49.49 0 0 1-.094.304.532.532 0 0 1-.266.191.538.538 0 0 1-.569-.184 2.876 2.876 0 0 1-.188-.259c-.123-.183-.243-.368-.371-.564-.148.226-.282.44-.428.648a1.239 1.239 0 0 1-.225.262.504.504 0 0 1-.49.092.496.496 0 0 1-.214-.138.46.46 0 0 1-.11-.223 1.022 1.022 0 0 1-.02-.22V1.577c-.044-.003-.076-.008-.108-.008h-3.18a1.21 1.21 0 0 0-.293.033c-.482.123-.757.481-.758.984v7.581c0 .036.004.073.007.119a.456.456 0 0 0 .058-.027c.32-.219.683-.287 1.07-.287 2.282.004 4.562.004 6.843 0l.246.002Zm0 1.232v-.41c0-.232-.013-.245-.258-.245H2.741c-.082 0-.164.004-.246.01-.677.044-1.102.773-.787 1.344.2.363.525.525.945.525h6.965c.028 0 .066.009.084-.005.047-.035.116-.079.12-.122.014-.17.005-.342.005-.526H9.66l-6.644.004a.963.963 0 0 1-.184-.01.296.296 0 0 1-.167-.1.27.27 0 0 1 .007-.355.299.299 0 0 1 .172-.094c.057-.007.114-.01.172-.008l6.63-.009.183.001Zm-3.27-9.63v2.64c.025-.035.038-.051.047-.068.179-.27.355-.543.537-.812.158-.232.406-.23.565 0 .086.128.17.258.254.387l.337.509V1.578h-1.74Z" fill="#fff"/><path d="m2.408 13-.024.097.012.003h.012V13Zm-.353-.093.032-.094-.032.094ZM1 11.541H.9v.003l.1-.003Zm.8-10.336-.049-.087H1.75l.05.087ZM2.623 1l-.002.1h.002V1Zm7.781.532.098-.023-.001-.003-.096.026Zm.024.243-.1-.003v.003h.1ZM9.83 13v.1h.018l.018-.007L9.83 13Zm-.002-3.025v.1l.1.001v-.1h-.1Zm-.005-8.281-.083.056.001.001.082-.057Zm-.121-.107.004-.1-.004.1Zm-.784-.005v-.1h-.1v.1h.1Zm0 2.915h-.1V4.5l.1-.003Zm-.36.495.031.096-.03-.096Zm-.569-.184-.078.063.002.002.076-.065Zm-.188-.259.084-.054-.001-.001-.083.055Zm-.371-.564.084-.055-.084-.127-.084.127.084.055Zm-.428.648-.082-.057-.002.003.084.054Zm-.225.262.064.076.002-.001-.066-.075Zm-.232.11-.019-.1.019.1Zm-.583-.379.099-.018v-.001l-.099.02Zm-.02-.22.1.001v-.002h-.1Zm0-2.828h.1v-.092l-.09-.007-.01.1ZM2.656 1.57l-.001.1v-.1Zm-.293.033-.023-.098h-.001l.024.098Zm-.758.984h-.1.1Zm.007 7.7-.1.005.007.138.129-.05-.036-.093Zm.058-.027.05.087.007-.005-.057-.082Zm1.07-.287v-.1.1Zm6.843 0v-.1.1Zm.246 1.234v.1l.1.001v-.1h-.1Zm-7.333-.646-.007-.1.007.1Zm-.787 1.345.088-.048-.088.048Zm.945.525v-.1.1Zm6.965 0v-.1.1Zm.084-.005.06.08-.06-.08Zm.12-.122-.1-.009v.001l.1.008Zm.005-.526h.1v-.1h-.1v.1Zm-.168 0v-.1.1Zm-6.644.004v-.1h-.004l.004.1Zm-.184-.01-.02.097.005.001.015-.099Zm.012-.55-.012-.099-.005.001.017.099Zm.172-.007-.004.1h.004v-.1Zm6.63-.009.002-.1h-.001v.1ZM6.559 1.578v-.1h-.1v.1h.1Zm0 2.638h-.1v.308l.18-.249-.08-.059Zm.047-.067-.084-.055-.004.008.088.047Zm.537-.812-.083-.056.083.056Zm.565 0 .082-.056-.082.056Zm.254.387-.083.055.083-.055Zm.337.509-.083.055.183.277v-.332h-.1Zm0-2.655h.1v-.1h-.1v.1ZM2.433 12.903c-.126-.032-.236-.053-.346-.09l-.064.19c.12.04.25.066.36.094l.05-.194Zm-.346-.09a1.476 1.476 0 0 1-.703-.495l-.158.122c.2.26.479.456.797.562l.064-.19Zm-.703-.495a1.353 1.353 0 0 1-.284-.78l-.2.006c.011.324.125.636.326.896l.158-.122Zm-.284-.777v-.117H.9v.117h.2Zm0-.117V2.577H.9v8.847h.2Zm0-8.846c0-.565.241-.992.75-1.286l-.1-.173c-.57.33-.85.823-.85 1.46h.2Zm.749-1.286c.233-.13.5-.197.772-.192l.004-.2a1.716 1.716 0 0 0-.874.218l.098.174Zm.774-.192h1.714V.9H2.623v.2Zm1.714 0h5.297V.9H4.337v.2Zm5.297 0c.184 0 .332.044.444.12.11.077.19.189.23.338l.193-.052a.778.778 0 0 0-.31-.45A.97.97 0 0 0 9.634.9v.2Zm.673.454a.84.84 0 0 1 .021.218l.2.007a1.037 1.037 0 0 0-.026-.27l-.195.045Zm.021.221v10.462h.2V1.776h-.2Zm0 10.462c0 .197-.033.317-.104.409-.075.094-.203.173-.43.26l.072.187c.235-.09.406-.185.515-.324.112-.142.147-.315.147-.532h-.2Zm-.498.663H2.408v.2H9.83v-.2Zm.098-2.925v-.128h-.2v.128h.2Zm0-.128v-8.05h-.2v8.05h.2Zm0-8.05c0-.004 0-.01.002-.019l.002-.033a.174.174 0 0 0-.028-.11l-.163.116a.05.05 0 0 1-.009-.02v.006c0 .006 0 .013-.002.024l-.002.036h.2Zm-.023-.16a.59.59 0 0 0-.068-.084.206.206 0 0 0-.13-.066l-.01.2c-.01 0-.016-.005-.014-.004a.395.395 0 0 1 .057.067l.165-.113Zm-.2-.15c-.259-.01-.52-.005-.787-.005v.2c.272 0 .526-.005.78.005l.008-.2Zm-.887.095v.15h.2v-.15h-.2Zm0 .15v2.765h.2V1.732h-.2Zm0 2.768a.39.39 0 0 1-.075.242l.162.118a.59.59 0 0 0 .113-.366l-.2.006Zm-.075.242a.433.433 0 0 1-.216.155l.063.19a.632.632 0 0 0 .315-.227l-.162-.118Zm-.216.155a.439.439 0 0 1-.462-.153l-.152.129a.639.639 0 0 0 .676.215l-.062-.19Zm-.46-.152a2.777 2.777 0 0 1-.182-.25l-.168.108c.06.093.125.183.195.268l.155-.126Zm-.183-.251c-.123-.183-.241-.367-.37-.564l-.168.11c.128.195.249.381.372.565l.166-.111Zm-.538-.564c-.15.229-.281.44-.426.646l.164.115c.147-.21.283-.427.43-.65l-.168-.11Zm-.428.65a1.18 1.18 0 0 1-.207.24l.132.15c.094-.083.176-.178.243-.283l-.168-.108Zm-.206.238a.404.404 0 0 1-.186.088l.038.196a.604.604 0 0 0 .277-.131l-.129-.153Zm-.186.088a.419.419 0 0 1-.208-.014l-.063.19c.1.033.206.04.309.02l-.038-.196Zm-.208-.014a.396.396 0 0 1-.17-.11l-.15.133a.596.596 0 0 0 .257.167l.063-.19Zm-.17-.11a.36.36 0 0 1-.087-.174l-.197.037a.56.56 0 0 0 .135.27l.148-.133Zm-.088-.175a.921.921 0 0 1-.017-.2l-.2-.004c-.002.081.005.163.021.243l.196-.04Zm-.017-.202V1.722h-.2v2.683h.2Zm0-2.683v-.144h-.2v.144h.2Zm-.092-.243c-.036-.003-.078-.009-.116-.009v.2c.027 0 .048.004.1.008l.016-.2Zm-.116-.009h-3.18v.2h3.18v-.2Zm-3.18 0a1.31 1.31 0 0 0-.316.035l.046.195c.088-.02.178-.03.269-.03l.002-.2Zm-.317.036c-.26.066-.47.197-.615.385a1.12 1.12 0 0 0-.219.696h.2a.92.92 0 0 1 .178-.574.898.898 0 0 1 .505-.313l-.05-.194Zm-.834 1.08v7.583h.2V2.587h-.2Zm0 7.582c0 .039.005.087.007.124l.2-.01c-.003-.055-.007-.08-.007-.114h-.2Zm.143.212a.56.56 0 0 0 .07-.033l-.097-.175a.35.35 0 0 1-.045.022l.072.186Zm.079-.038c.297-.203.637-.27 1.014-.269v-.2c-.4 0-.784.07-1.127.304l.113.165Zm1.014-.269c2.28.004 4.562.004 6.842 0v-.2c-2.28.004-4.561.004-6.842 0v.2Zm6.841 0 .247.002.001-.2-.246-.002-.002.2Zm.347 1.134v-.41h-.2v.41h.2Zm0-.41c0-.056 0-.108-.007-.15a.218.218 0 0 0-.061-.132.231.231 0 0 0-.133-.056 1.243 1.243 0 0 0-.157-.007v.2c.062 0 .102.001.13.005.028.004.028.009.022.003-.006-.006-.002-.008.002.016a.911.911 0 0 1 .004.121h.2Zm-.358-.345H2.741v.2h6.83v-.2Zm-6.829 0c-.085 0-.17.004-.253.01l.014.199c.08-.005.16-.009.24-.009v-.2Zm-.253.01c-.742.049-1.221.85-.867 1.492l.175-.096c-.277-.501.095-1.157.706-1.197l-.014-.2Zm-.867 1.492c.22.4.582.577 1.032.577v-.2c-.39 0-.678-.147-.857-.473l-.175.096Zm1.032.577h6.965v-.2H2.653v.2Zm6.965 0h.014l.028.002c.01 0 .025 0 .041-.002a.138.138 0 0 0 .06-.025l-.12-.16a.061.061 0 0 1 .028-.012h-.001l-.02-.002a.351.351 0 0 0-.03-.001v.2Zm.144-.025c.018-.013.055-.039.082-.063a.29.29 0 0 0 .045-.049.165.165 0 0 0 .032-.083l-.2-.015c.002-.014.007-.02.006-.018a.473.473 0 0 1-.046.04l-.04.028.121.16Zm.16-.194c.014-.175.005-.356.005-.534h-.2c0 .191.008.353-.005.517l.2.017Zm-.095-.634H9.66v.2h.168v-.2Zm-.168 0-6.644.004v.2l6.644-.004v-.2Zm-6.648.004a.862.862 0 0 1-.164-.01l-.03.198c.066.01.134.015.202.012l-.008-.2Zm-.159-.008a.197.197 0 0 1-.111-.067l-.154.128a.397.397 0 0 0 .224.134l.041-.195Zm-.111-.067a.171.171 0 0 1-.04-.112l-.2-.004a.371.371 0 0 0 .086.244l.154-.128Zm-.04-.112c0-.04.016-.08.045-.112l-.15-.133a.372.372 0 0 0-.095.24l.2.005Zm.045-.112a.198.198 0 0 1 .114-.062l-.034-.197a.398.398 0 0 0-.23.126l.15.133Zm.109-.061a.993.993 0 0 1 .156-.007l.007-.2c-.063-.002-.125 0-.187.008l.024.199Zm.16-.007 6.631-.009v-.2l-6.632.009v.2Zm6.63-.009.183.001.001-.2h-.182l-.002.2ZM6.458 1.578v2.638h.2V1.579h-.2Zm.18 2.697a.6.6 0 0 0 .055-.078l-.176-.095c-.005.009-.01.014-.04.056l.162.117Zm.05-.07c.18-.272.355-.543.537-.812l-.166-.112c-.182.27-.36.544-.537.813l.166.11Zm.537-.812c.065-.096.138-.13.199-.13.06 0 .134.035.2.13l.165-.112c-.093-.135-.222-.217-.365-.218-.143 0-.272.082-.365.218l.166.112Zm.399 0c.086.128.167.255.254.386l.167-.11c-.084-.127-.169-.26-.256-.388l-.165.112Zm.254.386.337.509.167-.11-.337-.51-.167.111Zm.52.454V1.578h-.2v2.655h.2Zm-.1-2.755h-1.74v.2h1.74v-.2Z" fill="#fff" mask="url(#a)"/></svg>