<svg width="20" height="20" fill="none" xmlns="http://www.w3.org/2000/svg"><path fill-rule="evenodd" clip-rule="evenodd" d="m14.006 14 .912-8.213a4.948 4.948 0 0 0-.101-1.68C13.62-.98 6.379-.98 5.182 4.107a4.949 4.949 0 0 0-.101 1.68L5.994 14H1a1 1 0 1 0 0 2h2v2a2 2 0 0 0 2 2h10a2 2 0 0 0 2-2v-2h2a1 1 0 1 0 0-2h-4.994ZM12.87 4.565c-.713-3.03-5.028-3.03-5.74 0a2.949 2.949 0 0 0-.061 1.002l.925 8.322c.004.038.006.074.006.111h4c0-.037.002-.073.006-.11l.925-8.323a2.952 2.952 0 0 0-.06-1.002ZM15 16H5v2h10v-2Z" fill="#fff"/></svg>